<svg width="106" height="106" xmlns="http://www.w3.org/2000/svg" xmlns:xlink="http://www.w3.org/1999/xlink"><defs><circle id="a" cx="53" cy="53" r="53"/></defs><g fill="none" fill-rule="evenodd"><use fill="#36536B" xlink:href="#a"/><path d="M72.01 49.948c.518 0 .938.42.938.937v10.339a5.39 5.39 0 0 1-5.39 5.39H38.39A5.39 5.39 0 0 1 33 61.225v-10.34c0-.517.42-.937.938-.937zm-29.036 4.219h-2.5a1.64 1.64 0 1 0 0 3.28h2.5a1.64 1.64 0 1 0 0-3.28zM67.557 40a5.39 5.39 0 0 1 5.391 5.39v.34c0 .517-.42.937-.938.937H33.937a.938.938 0 0 1-.937-.938v-.338A5.39 5.39 0 0 1 38.39 40z" fill="#FFF" fill-rule="nonzero"/></g></svg>