<svg width="106" height="106" xmlns="http://www.w3.org/2000/svg" xmlns:xlink="http://www.w3.org/1999/xlink"><defs><circle id="a" cx="53" cy="53" r="53"/></defs><g fill="none" fill-rule="evenodd"><use fill="#36536B" xlink:href="#a"/><path d="m57.158 49.162 4.668 9.803c.198.417.373.84.526 1.266h-7.404v8.74h-2.913v8.58c-.671.104-1.355.158-2.044.158h-3.874a13.04 13.04 0 0 1-11.083-6.11 13.04 13.04 0 0 1-.751-12.634l4.668-9.803h18.207zm12.84 22.72v5.827h-15.05v-5.826h15.05zm2.913-8.738v5.826H57.86v-5.826h15.05zm-24.193-7.67h-1.073v1.36a4.08 4.08 0 0 0-1.187.31 3.235 3.235 0 0 0-.973.647c-.277.27-.496.591-.657.964a3.217 3.217 0 0 0-.242 1.286c0 .35.047.66.141.93.094.27.24.51.436.721.197.211.447.4.751.566.304.166.666.321 1.087.465.277.099.554.184.832.256v1.185a4.597 4.597 0 0 1-.946-.235 7.616 7.616 0 0 1-.812-.344 7.95 7.95 0 0 1-.778-.431l-1.127 2.304a7.56 7.56 0 0 0 1.637.714c.608.189 1.22.31 1.838.364v1.657h1.073v-1.63c.411-.027.81-.101 1.194-.222a3.16 3.16 0 0 0 1.026-.54c.3-.237.542-.543.725-.916.183-.372.275-.823.275-1.353 0-.45-.067-.831-.201-1.146a2.207 2.207 0 0 0-.577-.802c-.25-.22-.552-.41-.906-.572a9.753 9.753 0 0 0-1.187-.445 4.053 4.053 0 0 1-.282-.087 2.369 2.369 0 0 0-.255-.075v-1.212c.25.045.499.11.745.195s.467.178.664.276c.233.108.447.225.644.35l1.127-2.169c-.188-.09-.394-.186-.617-.29a10.002 10.002 0 0 0-.718-.296 8.356 8.356 0 0 0-.798-.249 6.53 6.53 0 0 0-.859-.162v-1.374zm-.188 7.734c.18.072.322.155.43.249a.427.427 0 0 1 .16.33.344.344 0 0 1-.134.283c-.09.072-.24.117-.456.135zm-.697-4.056v1.024a1.259 1.259 0 0 1-.403-.236.436.436 0 0 1-.134-.33c0-.26.18-.413.537-.458zm8.474-15.816v2.913H39.801v-2.913h16.506zM54.851 28l5.143 3.38-3.103 9.043H39.218l-3.104-9.044L41.257 28l3.399 2.233L48.054 28l3.399 2.233L54.85 28z" fill="#EDF3F8" fill-rule="nonzero"/></g></svg>