<svg xmlns="http://www.w3.org/2000/svg" width="263" height="500" fill="none"><path fill-rule="evenodd" clip-rule="evenodd" d="M35.776.57h191.233c18.341 0 33.208 14.235 33.208 31.795v435.27c0 17.56-14.867 31.796-33.208 31.796H35.776c-18.34 0-33.208-14.236-33.208-31.796V32.365C2.568 14.805 17.436.57 35.776.57Z" fill="#213648"/><path opacity=".596" fill-rule="evenodd" clip-rule="evenodd" d="M227.749 0H34.923C25.92.549 17.617 4.657 10.015 12.324c4.89-4.268 13.61-9.98 25.14-9.98h192.362c11.529 0 20.25 5.712 25.139 9.98C245.054 4.657 236.751.549 227.749 0Z" fill="url('#paint0_linear_41_140')" fill-opacity=".65"/><path opacity=".75" fill-rule="evenodd" clip-rule="evenodd" d="M254.999 462.671V34.981c0-11.475-4.217-15.717-6.733-18.44-2.516-2.725-2.623-4.114.992-2.057 3.615 2.056 10.845 8.046 10.845 20.498V462.67c0 12.451-7.23 18.441-10.845 20.498-3.615 2.056-3.508.667-.992-2.057s6.733-6.966 6.733-18.441Z" fill="url('#paint1_linear_41_140')"/><path opacity=".75" fill-rule="evenodd" clip-rule="evenodd" d="M7.672 462.671V34.981c0-11.475 4.217-15.717 6.733-18.44 2.516-2.725 2.623-4.114-.992-2.057C9.798 16.54 2.568 22.53 2.568 34.982V462.67c0 12.451 7.23 18.441 10.845 20.498 3.615 2.056 3.508.667.992-2.057s-6.733-6.966-6.733-18.441Z" fill="url('#paint2_linear_41_140')"/><path fill-rule="evenodd" clip-rule="evenodd" d="M0 103.556a2 2 0 0 1 2-2h.965a2 2 0 0 1 2 2v60.351a2 2 0 0 1-2 2H2a2 2 0 0 1-2-2v-60.351ZM257.535 156.043a2 2 0 0 1 2-2h.965a2 2 0 0 1 2 2v42.95a2 2 0 0 1-2 2h-.965a2 2 0 0 1-2-2v-42.95Z" fill="#2E423C"/><g clip-path="url('#clip0_41_140')"><path fill-rule="evenodd" clip-rule="evenodd" d="M108.676 12.445H34.27c-11.105 0-19.196 7.563-19.196 17.441v422.39c0 12.88 12.502 24.292 26.64 24.292h179.332c13.618 0 26.64-11.501 26.64-24.292V31.028c0-11.84-8.79-18.513-19.196-18.583h-75.586c-.286.046-5.479 2.181-7.673 7.563-2.195 5.381-6.61 9.671-11.444 9.671h-5.615c-2.298 0-8.348-2.23-11.412-9.671-3.063-7.442-7.797-7.516-8.084-7.563Z" fill="#fff"/><mask id="mask0_41_140" style="mask-type:luminance" maskUnits="userSpaceOnUse" x="15" y="12" width="233" height="465"><path fill-rule="evenodd" clip-rule="evenodd" d="M108.676 12.445H34.27c-11.105 0-19.196 7.563-19.196 17.441v422.39c0 12.88 12.502 24.292 26.64 24.292h179.332c13.618 0 26.64-11.501 26.64-24.292V31.028c0-11.84-8.79-18.513-19.196-18.583h-75.586c-.286.046-5.479 2.181-7.673 7.563-2.195 5.381-6.61 9.671-11.444 9.671h-5.615c-2.298 0-8.348-2.23-11.412-9.671-3.063-7.442-7.797-7.516-8.084-7.563Z" fill="#fff"/></mask><g mask="url('#mask0_41_140')"><path fill="url('#paint3_linear_41_140')" d="M15 12.445h233v465H15z"/><path d="M94.504 141v-17.328h-4.128v-2.64c1.323 0 2.39-.123 3.2-.368.821-.256 1.435-.619 1.84-1.088.405-.48.645-1.051.72-1.712h3.104V141h-4.736Zm9.992 0V137.512c0-1.173.218-2.187.656-3.04a7.404 7.404 0 0 1 1.728-2.24c.725-.64 1.514-1.2 2.368-1.68a60.86 60.86 0 0 1 2.592-1.36 34.057 34.057 0 0 0 2.368-1.28c.725-.437 1.306-.923 1.744-1.456.437-.533.656-1.163.656-1.888 0-.928-.326-1.685-.976-2.272-.64-.587-1.52-.88-2.64-.88-1.163 0-2.15.336-2.96 1.008-.811.672-1.312 1.685-1.504 3.04h-4.464c.021-1.472.362-2.805 1.024-4 .672-1.205 1.674-2.16 3.008-2.864 1.333-.704 3.008-1.056 5.024-1.056 1.728 0 3.216.293 4.464.88 1.258.587 2.229 1.403 2.912 2.448.682 1.045 1.024 2.267 1.024 3.664 0 1.163-.214 2.165-.64 3.008a6.868 6.868 0 0 1-1.696 2.16 13.058 13.058 0 0 1-2.32 1.568c-.843.448-1.686.864-2.528 1.248-.832.384-1.6.779-2.304 1.184-.704.395-1.27.843-1.696 1.344-.427.501-.64 1.104-.64 1.808v.208h11.792V141h-16.992Zm25.208-16.144v5.008h-5.12v-5.008h5.12Zm0 11.056v4.992h-5.12v-4.992h5.12Zm13.747-18.048h4.592v14.096h3.568v3.92h-3.568V141h-4.496l.016-5.12h-10.656v-3.84l10.544-14.176Zm-6.224 14.096h6.336v-8.48l-6.336 8.48Zm25.208 9.392c-1.44 0-2.784-.277-4.032-.832-1.248-.555-2.266-1.333-3.056-2.336-.789-1.013-1.232-2.197-1.328-3.552h4.448c.192.896.619 1.627 1.28 2.192.662.555 1.494.832 2.496.832 1.11 0 2.08-.261 2.912-.784.843-.523 1.472-1.355 1.888-2.496.427-1.141.576-2.635.448-4.48a4.714 4.714 0 0 1-1.248 1.488 5.94 5.94 0 0 1-1.84.976c-.704.224-1.488.336-2.352.336-1.568 0-2.96-.293-4.176-.88-1.205-.597-2.154-1.44-2.848-2.528-.682-1.099-1.024-2.4-1.024-3.904 0-1.515.363-2.864 1.088-4.048.726-1.184 1.739-2.112 3.04-2.784 1.302-.672 2.827-1.008 4.576-1.008 1.963 0 3.654.469 5.072 1.408 1.43.928 2.523 2.251 3.28 3.968.768 1.707 1.152 3.717 1.152 6.032 0 2.763-.394 5.067-1.184 6.912-.778 1.835-1.898 3.211-3.36 4.128-1.461.907-3.205 1.36-5.232 1.36Zm.416-12.368a4.36 4.36 0 0 0 1.888-.432c.619-.299 1.126-.672 1.52-1.12.395-.448.592-.912.592-1.392.011-1.035-.154-1.92-.496-2.656-.33-.747-.8-1.317-1.408-1.712-.597-.395-1.296-.592-2.096-.592-.736 0-1.392.171-1.968.512a3.613 3.613 0 0 0-1.36 1.44c-.33.619-.496 1.333-.496 2.144 0 1.205.352 2.144 1.056 2.816.704.661 1.627.992 2.768.992Z" fill="#fff"/></g></g><g clip-path="url('#clip1_41_140')"><g filter="url('#filter0_d_41_140')"><rect x="22" y="167" width="218" height="87" rx="5" fill="#FBFCFE"/></g><g clip-path="url('#clip2_41_140')"><path d="M38.81 193v-7.23h2.66c.527 0 .998.092 1.415.275.417.18.745.447.985.8.243.353.365.785.365 1.295 0 .48-.107.89-.32 1.23-.213.34-.513.6-.9.78-.383.18-.835.27-1.355.27h-1.38V193h-1.47Zm1.455-3.71h1.355c.367 0 .667-.117.9-.35.233-.237.35-.528.35-.875 0-.36-.123-.645-.37-.855a1.33 1.33 0 0 0-.9-.32h-1.335v2.4Zm6.247 3.81c-.33 0-.627-.062-.89-.185a1.484 1.484 0 0 1-.625-.535c-.154-.237-.23-.523-.23-.86 0-.567.211-.997.635-1.29.423-.297 1.091-.45 2.005-.46l.645-.01v-.31c0-.237-.07-.418-.21-.545-.137-.13-.35-.193-.64-.19a1.388 1.388 0 0 0-.61.15c-.19.097-.32.265-.39.505h-1.215c.02-.373.128-.68.325-.92.196-.243.463-.423.8-.54.34-.12.725-.18 1.155-.18.53 0 .955.067 1.275.2.32.13.551.318.695.565.143.243.215.533.215.87V193h-1.22l-.12-.89c-.177.373-.399.632-.665.775a1.931 1.931 0 0 1-.935.215Zm.49-.96c.133 0 .261-.023.385-.07.126-.05.238-.115.335-.195.1-.083.18-.177.24-.28.06-.103.09-.21.09-.32v-.765l-.525.01c-.244.003-.47.033-.68.09-.21.053-.38.142-.51.265-.127.123-.19.29-.19.5 0 .24.083.428.25.565a.94.94 0 0 0 .605.2Zm4.362 2.51c-.354 0-.604-.03-.75-.09l-.215-.085v-.93l.51.02c.223.013.403.002.54-.035a.783.783 0 0 0 .31-.135.516.516 0 0 0 .155-.18c.03-.06.051-.108.065-.145l.095-.285-2.01-4.955h1.445l1.24 3.37 1.255-3.37h1.425l-2.095 5.2c-.18.44-.37.777-.57 1.01-.2.233-.417.393-.65.48-.23.087-.48.13-.75.13Zm3.864-1.65 2.59-7.23h1.54l2.585 7.23h-1.455l-.59-1.675h-2.6L56.693 193h-1.465Zm2.395-2.95h1.925l-.955-2.87-.97 2.87ZM63.03 193v-7.23h2.66c.526 0 .998.092 1.415.275.416.18.745.447.985.8.243.353.365.785.365 1.295 0 .48-.107.89-.32 1.23-.214.34-.514.6-.9.78-.384.18-.835.27-1.355.27h-1.38V193h-1.47Zm1.455-3.71h1.355c.366 0 .666-.117.9-.35.233-.237.35-.528.35-.875 0-.36-.124-.645-.37-.855a1.33 1.33 0 0 0-.9-.32h-1.335v2.4Zm5.068-3.52h1.455V193h-1.455v-7.23Z" fill="#BA4270"/><path opacity=".5" d="M185.609 191.295c0 .383-.043.71-.13.98-.087.27-.242.475-.465.615-.22.14-.533.21-.94.21-.257 0-.498-.03-.725-.09a4.568 4.568 0 0 1-.445-.135l.065-.885c.103.037.222.083.355.14.137.053.305.08.505.08.327 0 .55-.09.67-.27.123-.18.185-.483.185-.91v-5.26h.925v5.525Zm3.432 1.805a2.72 2.72 0 0 1-.765-.115 1.963 1.963 0 0 1-.63-.335 1.569 1.569 0 0 1-.435-.545 1.771 1.771 0 0 1-.155-.765v-3.51h.925v3.415c0 .337.103.61.31.82.21.21.525.315.945.315.38 0 .685-.098.915-.295.233-.2.35-.497.35-.89v-3.365h.92V193h-.735l-.095-.99a1.36 1.36 0 0 1-.325.63c-.15.16-.332.278-.545.355-.21.073-.437.108-.68.105Zm5.657 0c-.36 0-.695-.055-1.005-.165a1.824 1.824 0 0 1-.765-.525c-.203-.24-.331-.545-.385-.915h.84c.047.203.13.373.25.51.124.133.277.235.46.305.184.067.384.1.6.1.347 0 .627-.065.84-.195.214-.13.32-.33.32-.6a.612.612 0 0 0-.17-.455c-.11-.117-.281-.202-.515-.255l-1.07-.265c-.416-.1-.75-.257-1-.47-.25-.213-.375-.512-.375-.895-.003-.303.069-.57.215-.8.147-.23.367-.412.66-.545.294-.133.659-.2 1.095-.2.56 0 1.012.127 1.355.38.347.25.527.618.54 1.105h-.815a.841.841 0 0 0-.335-.585c-.186-.147-.438-.22-.755-.22-.33 0-.598.067-.805.2-.206.13-.31.333-.31.61 0 .183.074.328.22.435.147.103.364.19.65.26l1.035.26c.24.063.437.147.59.25.157.103.28.218.37.345.094.127.159.26.195.4.04.137.06.268.06.395 0 .317-.08.59-.24.82a1.525 1.525 0 0 1-.68.53c-.293.123-.65.185-1.07.185Zm5.802-4.595h-1.165v3.215c0 .183.018.318.055.405.04.083.105.137.195.16.093.023.22.035.38.035h.565v.62c-.064.023-.16.043-.29.06a3.686 3.686 0 0 1-.475.025c-.357 0-.634-.048-.83-.145a.828.828 0 0 1-.415-.43 1.868 1.868 0 0 1-.115-.7v-3.245h-.84v-.675h.865l.225-1.505h.68v1.5h1.165v.68Zm8.528-2.735h.925V193h-.825l-3.88-5.7v5.7h-.925v-7.23h.885l3.82 5.62v-5.62Zm4.631 7.33c-.477 0-.894-.102-1.25-.305a2.08 2.08 0 0 1-.83-.905c-.197-.397-.295-.882-.295-1.455 0-.54.091-1.013.275-1.42.183-.407.451-.722.805-.945.356-.227.788-.34 1.295-.34.476 0 .89.105 1.24.315.353.207.626.512.82.915.193.403.29.895.29 1.475 0 .527-.09.99-.27 1.39-.177.4-.44.713-.79.94-.347.223-.777.335-1.29.335Zm0-.73c.31 0 .571-.078.785-.235a1.44 1.44 0 0 0 .485-.675c.11-.293.165-.642.165-1.045 0-.37-.049-.702-.145-.995a1.47 1.47 0 0 0-.465-.705c-.21-.173-.485-.26-.825-.26-.314 0-.579.078-.795.235a1.415 1.415 0 0 0-.495.67c-.11.293-.165.645-.165 1.055 0 .363.05.693.15.99.1.297.256.532.47.705.213.173.491.26.835.26Zm10.174-4.54-1.565 5.17h-.91l-1.18-3.815-1.12 3.815h-.905l-1.595-5.17h.855l1.185 3.975h.08l1.165-3.975h.7l1.21 3.965h.08l1.135-3.965h.865Z" fill="#36536B"/></g><path d="M38.23 202.62v-.85h5.47v.85h-2.205V209h-.93v-6.38H38.23Zm6.473 6.38v-7.43h.9v3.02c.086-.143.203-.277.35-.4.146-.127.325-.228.534-.305.21-.08.454-.12.73-.12.337 0 .642.063.916.19.273.123.49.3.65.53.16.23.24.503.24.82V209h-.926v-3.51c0-.31-.106-.548-.32-.715-.21-.17-.485-.255-.825-.255-.23 0-.446.038-.65.115a1.12 1.12 0 0 0-.495.34.876.876 0 0 0-.184.575V209h-.92Zm6.421-2.37c0 .327.054.623.16.89.11.263.275.473.495.63.224.157.502.235.835.235.33 0 .614-.077.85-.23a1.03 1.03 0 0 0 .46-.665h.875c-.063.35-.203.645-.42.885-.216.24-.478.422-.785.545a2.61 2.61 0 0 1-.96.18c-.483 0-.908-.105-1.275-.315a2.192 2.192 0 0 1-.86-.905c-.206-.393-.31-.865-.31-1.415 0-.543.094-1.02.28-1.43.187-.41.457-.73.81-.96.357-.23.785-.345 1.285-.345.487 0 .899.105 1.235.315.337.21.592.507.765.89.177.38.265.832.265 1.355v.34h-3.705Zm.005-.625h2.81c0-.297-.05-.563-.15-.8-.1-.24-.253-.428-.46-.565-.203-.14-.46-.21-.77-.21-.323 0-.591.078-.805.235-.21.153-.368.352-.475.595-.103.24-.153.488-.15.745Zm7.206 4.605v-6.78h.92l.01.9c.06-.107.137-.218.23-.335.097-.117.214-.225.35-.325.14-.1.302-.182.485-.245a1.98 1.98 0 0 1 .635-.095c.414 0 .777.095 1.09.285.317.187.564.473.74.86.177.387.265.877.265 1.47s-.086 1.095-.26 1.505c-.17.407-.416.717-.74.93-.323.213-.713.32-1.17.32a1.755 1.755 0 0 1-1.08-.35c-.13-.107-.24-.22-.33-.34a2.729 2.729 0 0 1-.215-.345v2.545h-.93Zm2.38-2.23a1.3 1.3 0 0 0 1.045-.485c.27-.327.405-.833.405-1.52 0-.59-.123-1.058-.37-1.405-.246-.347-.606-.52-1.08-.52-.48 0-.843.178-1.09.535-.246.353-.37.817-.37 1.39 0 .37.055.707.165 1.01.11.303.274.545.49.725.217.18.485.27.805.27Zm4.92.72c-.334 0-.629-.058-.886-.175a1.432 1.432 0 0 1-.605-.515 1.466 1.466 0 0 1-.215-.81c0-.573.2-1 .6-1.28.4-.28 1.042-.43 1.925-.45l.925-.025v-.405c0-.317-.095-.567-.285-.75-.19-.187-.484-.28-.884-.28a1.518 1.518 0 0 0-.785.21c-.224.137-.369.36-.435.67h-.816c.02-.337.115-.62.285-.85.17-.233.407-.41.71-.53a2.97 2.97 0 0 1 1.085-.18c.45 0 .824.063 1.12.19.3.127.524.313.67.56.15.247.225.55.225.91V209h-.79l-.064-.97c-.2.403-.456.683-.766.84-.306.153-.645.23-1.014.23Zm.28-.665c.173 0 .344-.032.514-.095a1.84 1.84 0 0 0 .475-.255c.144-.11.257-.232.34-.365a.815.815 0 0 0 .135-.42v-.885l-.77.015a4.087 4.087 0 0 0-.99.12c-.263.073-.461.188-.594.345-.13.157-.196.362-.196.615 0 .29.1.517.3.68.204.163.465.245.785.245Zm4.278 2.215c-.303 0-.512-.022-.625-.065l-.17-.065v-.6l.525.01c.193.007.353-.007.48-.04a.882.882 0 0 0 .305-.135.628.628 0 0 0 .175-.19c.043-.07.078-.137.105-.2l.18-.49-2.02-5.045h.935l1.525 3.99 1.515-3.99h.905l-2.18 5.56c-.133.327-.283.582-.45.765a1.35 1.35 0 0 1-.55.385c-.2.073-.418.11-.655.11Zm4.822-1.65v-5.17h.89v.75a2.04 2.04 0 0 1 .59-.595c.25-.17.575-.255.975-.255.187 0 .377.032.57.095.197.063.377.158.54.285.163.127.29.282.38.465.16-.253.377-.457.65-.61.273-.157.582-.235.925-.235.18 0 .368.028.565.085a1.466 1.466 0 0 1 .96.865c.107.243.16.557.16.94V209h-.93v-3.29c0-.313-.05-.555-.15-.725a.834.834 0 0 0-.395-.365 1.27 1.27 0 0 0-.515-.105c-.16 0-.33.032-.51.095s-.333.17-.46.32-.19.355-.19.615V209h-.92v-3.56a.789.789 0 0 0-.165-.51 1.006 1.006 0 0 0-.405-.31c-.16-.07-.32-.105-.48-.105-.177 0-.355.035-.535.105-.177.07-.327.182-.45.335-.12.15-.18.347-.18.59V209h-.92Zm9.312-2.37c0 .327.054.623.16.89.11.263.275.473.495.63.224.157.502.235.835.235.33 0 .614-.077.85-.23a1.03 1.03 0 0 0 .46-.665h.875c-.063.35-.203.645-.42.885-.216.24-.478.422-.785.545a2.61 2.61 0 0 1-.96.18c-.483 0-.908-.105-1.275-.315a2.192 2.192 0 0 1-.86-.905c-.206-.393-.31-.865-.31-1.415 0-.543.094-1.02.28-1.43.187-.41.457-.73.81-.96.357-.23.785-.345 1.285-.345.487 0 .899.105 1.235.315.337.21.592.507.765.89.177.38.265.832.265 1.355v.34h-3.705Zm.005-.625h2.81c0-.297-.05-.563-.15-.8-.1-.24-.253-.428-.46-.565-.203-.14-.46-.21-.77-.21-.323 0-.591.078-.805.235-.21.153-.368.352-.475.595-.103.24-.153.488-.15.745Zm4.97 2.995v-5.17h.895v.75c.083-.143.198-.278.345-.405.15-.127.33-.228.54-.305.213-.077.458-.115.735-.115.327 0 .627.065.9.195.277.13.497.333.66.61.167.273.25.627.25 1.06V209h-.925v-3.29c0-.403-.107-.702-.32-.895-.21-.197-.483-.295-.82-.295-.233 0-.452.038-.655.115a1.12 1.12 0 0 0-.495.34.853.853 0 0 0-.19.57V209h-.92Zm8.154-4.495h-1.165v3.215c0 .183.018.318.055.405.04.083.105.137.195.16.093.023.22.035.38.035h.565v.62c-.063.023-.16.043-.29.06a3.682 3.682 0 0 1-.475.025c-.357 0-.633-.048-.83-.145a.829.829 0 0 1-.415-.43 1.874 1.874 0 0 1-.115-.7v-3.245h-.84v-.675h.865l.225-1.505h.68v1.5h1.165v.68ZM101.09 209v-7.43h.9v3.02c.087-.143.204-.277.35-.4.147-.127.325-.228.535-.305.21-.08.454-.12.73-.12.337 0 .642.063.915.19.274.123.49.3.65.53.16.23.24.503.24.82V209h-.925v-3.51c0-.31-.106-.548-.32-.715-.21-.17-.485-.255-.825-.255-.23 0-.446.038-.65.115a1.123 1.123 0 0 0-.495.34.878.878 0 0 0-.185.575V209h-.92Zm7.172.1c-.333 0-.628-.058-.885-.175a1.439 1.439 0 0 1-.605-.515 1.47 1.47 0 0 1-.215-.81c0-.573.2-1 .6-1.28.4-.28 1.042-.43 1.925-.45l.925-.025v-.405c0-.317-.095-.567-.285-.75-.19-.187-.485-.28-.885-.28a1.52 1.52 0 0 0-.785.21c-.223.137-.368.36-.435.67h-.815c.02-.337.115-.62.285-.85.17-.233.407-.41.71-.53.307-.12.669-.18 1.085-.18.45 0 .824.063 1.12.19.3.127.524.313.67.56.15.247.225.55.225.91V209h-.79l-.065-.97c-.2.403-.455.683-.765.84a2.24 2.24 0 0 1-1.015.23Zm.28-.665c.174 0 .345-.032.515-.095.174-.063.332-.148.475-.255.144-.11.257-.232.34-.365a.807.807 0 0 0 .135-.42v-.885l-.77.015a4.092 4.092 0 0 0-.99.12c-.263.073-.461.188-.595.345-.13.157-.195.362-.195.615 0 .29.1.517.3.68.204.163.465.245.785.245Zm5.682.665c-.36 0-.695-.055-1.005-.165a1.811 1.811 0 0 1-.765-.525c-.203-.24-.332-.545-.385-.915h.84c.047.203.13.373.25.51a1.2 1.2 0 0 0 .46.305c.183.067.383.1.6.1.347 0 .627-.065.84-.195.213-.13.32-.33.32-.6a.616.616 0 0 0-.17-.455c-.11-.117-.282-.202-.515-.255l-1.07-.265c-.417-.1-.75-.257-1-.47-.25-.213-.375-.512-.375-.895-.003-.303.068-.57.215-.8.147-.23.367-.412.66-.545.293-.133.658-.2 1.095-.2.56 0 1.012.127 1.355.38.347.25.527.618.54 1.105h-.815a.841.841 0 0 0-.335-.585c-.187-.147-.438-.22-.755-.22-.33 0-.598.067-.805.2-.207.13-.31.333-.31.61a.51.51 0 0 0 .22.435c.147.103.363.19.65.26l1.035.26c.24.063.437.147.59.25.157.103.28.218.37.345.093.127.158.26.195.4.04.137.06.268.06.395 0 .317-.08.59-.24.82a1.53 1.53 0 0 1-.68.53c-.293.123-.65.185-1.07.185Zm8.103 0c-.303 0-.56-.04-.77-.12a1.582 1.582 0 0 1-.51-.305 1.68 1.68 0 0 1-.31-.385 2.165 2.165 0 0 1-.16-.35l-.1 1.06h-.705v-7.43h.93v3.08c.043-.087.108-.182.195-.285a1.931 1.931 0 0 1 .84-.54c.193-.063.413-.095.66-.095.647 0 1.16.225 1.54.675.383.45.575 1.113.575 1.99 0 .543-.082 1.018-.245 1.425a2.072 2.072 0 0 1-.73.945c-.323.223-.727.335-1.21.335Zm-.165-.71c.42 0 .762-.162 1.025-.485.263-.327.395-.845.395-1.555 0-.603-.123-1.07-.37-1.4-.243-.333-.6-.5-1.07-.5-.343 0-.62.075-.83.225-.207.147-.36.362-.46.645a3.276 3.276 0 0 0-.15 1.03c0 .723.112 1.245.335 1.565.227.317.602.475 1.125.475Zm4.217-1.76c0 .327.053.623.16.89.11.263.275.473.495.63.223.157.502.235.835.235.33 0 .613-.077.85-.23a1.03 1.03 0 0 0 .46-.665h.875a1.75 1.75 0 0 1-.42.885c-.217.24-.478.422-.785.545-.307.12-.627.18-.96.18-.483 0-.908-.105-1.275-.315a2.191 2.191 0 0 1-.86-.905c-.207-.393-.31-.865-.31-1.415 0-.543.093-1.02.28-1.43.187-.41.457-.73.81-.96.357-.23.785-.345 1.285-.345.487 0 .898.105 1.235.315.337.21.592.507.765.89.177.38.265.832.265 1.355v.34h-3.705Zm.005-.625h2.81c0-.297-.05-.563-.15-.8-.1-.24-.253-.428-.46-.565-.203-.14-.46-.21-.77-.21-.323 0-.592.078-.805.235a1.44 1.44 0 0 0-.475.595c-.103.24-.153.488-.15.745Zm5.63.625c0 .327.053.623.16.89.11.263.275.473.495.63.223.157.502.235.835.235.33 0 .613-.077.85-.23a1.03 1.03 0 0 0 .46-.665h.875a1.75 1.75 0 0 1-.42.885c-.217.24-.478.422-.785.545-.307.12-.627.18-.96.18-.483 0-.908-.105-1.275-.315a2.191 2.191 0 0 1-.86-.905c-.207-.393-.31-.865-.31-1.415 0-.543.093-1.02.28-1.43.187-.41.457-.73.81-.96.357-.23.785-.345 1.285-.345.487 0 .898.105 1.235.315.337.21.592.507.765.89.177.38.265.832.265 1.355v.34h-3.705Zm.005-.625h2.81c0-.297-.05-.563-.15-.8-.1-.24-.253-.428-.46-.565-.203-.14-.46-.21-.77-.21-.323 0-.592.078-.805.235a1.44 1.44 0 0 0-.475.595c-.103.24-.153.488-.15.745Zm4.97 2.995v-5.17h.895v.75c.083-.143.198-.278.345-.405.15-.127.33-.228.54-.305.213-.077.458-.115.735-.115.326 0 .626.065.9.195.276.13.496.333.66.61.166.273.25.627.25 1.06V209h-.925v-3.29c0-.403-.107-.702-.32-.895-.21-.197-.484-.295-.82-.295a1.83 1.83 0 0 0-.655.115 1.112 1.112 0 0 0-.495.34.851.851 0 0 0-.19.57V209h-.92Zm8.076 1.61v-6.78h.92l.01.9c.06-.107.136-.218.23-.335a1.89 1.89 0 0 1 .35-.325c.14-.1.301-.182.485-.245.186-.063.398-.095.635-.095.413 0 .776.095 1.09.285.316.187.563.473.74.86.176.387.265.877.265 1.47s-.087 1.095-.26 1.505c-.17.407-.417.717-.74.93-.324.213-.714.32-1.17.32a1.755 1.755 0 0 1-1.08-.35c-.13-.107-.24-.22-.33-.34a2.619 2.619 0 0 1-.215-.345v2.545h-.93Zm2.38-2.23a1.3 1.3 0 0 0 1.045-.485c.27-.327.405-.833.405-1.52 0-.59-.124-1.058-.37-1.405-.247-.347-.607-.52-1.08-.52-.48 0-.844.178-1.09.535-.247.353-.37.817-.37 1.39 0 .37.055.707.165 1.01.11.303.273.545.49.725.216.18.485.27.805.27Zm3.557.62v-5.17h.88v.995c.087-.247.209-.45.365-.61.157-.163.335-.285.535-.365a1.711 1.711 0 0 1 .855-.105c.074.01.13.027.17.05v.895a.596.596 0 0 0-.195-.045 1.53 1.53 0 0 0-.195-.015c-.206-.013-.4 0-.58.04-.18.037-.338.102-.475.195a1.005 1.005 0 0 0-.325.37c-.076.15-.115.333-.115.55V209h-.92Zm5.815.1c-.477 0-.893-.102-1.25-.305a2.086 2.086 0 0 1-.83-.905c-.197-.397-.295-.882-.295-1.455 0-.54.092-1.013.275-1.42.183-.407.452-.722.805-.945.357-.227.788-.34 1.295-.34.477 0 .89.105 1.24.315.353.207.627.512.82.915.193.403.29.895.29 1.475 0 .527-.09.99-.27 1.39-.177.4-.44.713-.79.94-.347.223-.777.335-1.29.335Zm0-.73c.31 0 .572-.078.785-.235a1.44 1.44 0 0 0 .485-.675c.11-.293.165-.642.165-1.045 0-.37-.048-.702-.145-.995a1.47 1.47 0 0 0-.465-.705c-.21-.173-.485-.26-.825-.26a1.32 1.32 0 0 0-.795.235 1.415 1.415 0 0 0-.495.67c-.11.293-.165.645-.165 1.055 0 .363.05.693.15.99.1.297.257.532.47.705.213.173.492.26.835.26Zm5.62-4.64c.37 0 .704.072 1 .215.297.14.539.34.725.6.19.26.309.567.355.92h-.82c-.03-.18-.1-.345-.21-.495a1.145 1.145 0 0 0-.425-.36 1.346 1.346 0 0 0-.62-.135c-.443 0-.803.16-1.08.48-.276.32-.415.81-.415 1.47 0 .597.127 1.075.38 1.435.257.357.634.535 1.13.535.237 0 .442-.045.615-.135a1.185 1.185 0 0 0 .63-.855h.805a1.848 1.848 0 0 1-1.08 1.49 2.31 2.31 0 0 1-.99.205c-.463 0-.875-.102-1.235-.305a2.12 2.12 0 0 1-.84-.9c-.203-.397-.305-.883-.305-1.46 0-.54.092-1.012.275-1.415.187-.407.457-.723.81-.95.357-.227.789-.34 1.295-.34Zm3.991 2.9c0 .327.053.623.16.89.11.263.275.473.495.63.223.157.502.235.835.235.33 0 .613-.077.85-.23a1.03 1.03 0 0 0 .46-.665h.875a1.75 1.75 0 0 1-.42.885c-.217.24-.478.422-.785.545-.307.12-.627.18-.96.18-.483 0-.908-.105-1.275-.315a2.191 2.191 0 0 1-.86-.905c-.207-.393-.31-.865-.31-1.415 0-.543.093-1.02.28-1.43.187-.41.457-.73.81-.96.357-.23.785-.345 1.285-.345.487 0 .898.105 1.235.315.337.21.592.507.765.89.177.38.265.832.265 1.355v.34h-3.705Zm.005-.625h2.81c0-.297-.05-.563-.15-.8-.1-.24-.253-.428-.46-.565-.203-.14-.46-.21-.77-.21-.323 0-.592.078-.805.235a1.44 1.44 0 0 0-.475.595c-.103.24-.153.488-.15.745Zm6.766 3.095c-.36 0-.695-.055-1.005-.165a1.811 1.811 0 0 1-.765-.525c-.204-.24-.332-.545-.385-.915h.84c.046.203.13.373.25.51.123.133.276.235.46.305.183.067.383.1.6.1.346 0 .626-.065.84-.195.213-.13.32-.33.32-.6a.616.616 0 0 0-.17-.455c-.11-.117-.282-.202-.515-.255l-1.07-.265c-.417-.1-.75-.257-1-.47-.25-.213-.375-.512-.375-.895-.004-.303.068-.57.215-.8.146-.23.366-.412.66-.545.293-.133.658-.2 1.095-.2.56 0 1.011.127 1.355.38.346.25.526.618.54 1.105h-.815a.845.845 0 0 0-.335-.585c-.187-.147-.439-.22-.755-.22-.33 0-.599.067-.805.2-.207.13-.31.333-.31.61a.51.51 0 0 0 .22.435c.146.103.363.19.65.26l1.035.26c.24.063.436.147.59.25.156.103.28.218.37.345.093.127.158.26.195.4.04.137.06.268.06.395 0 .317-.08.59-.24.82a1.536 1.536 0 0 1-.68.53c-.294.123-.65.185-1.07.185Zm5.029 0c-.36 0-.695-.055-1.005-.165a1.811 1.811 0 0 1-.765-.525c-.203-.24-.332-.545-.385-.915h.84c.047.203.13.373.25.51a1.2 1.2 0 0 0 .46.305c.183.067.383.1.6.1.347 0 .627-.065.84-.195.213-.13.32-.33.32-.6a.616.616 0 0 0-.17-.455c-.11-.117-.282-.202-.515-.255l-1.07-.265c-.417-.1-.75-.257-1-.47-.25-.213-.375-.512-.375-.895-.003-.303.068-.57.215-.8.147-.23.367-.412.66-.545.293-.133.658-.2 1.095-.2.56 0 1.012.127 1.355.38.347.25.527.618.54 1.105h-.815a.841.841 0 0 0-.335-.585c-.187-.147-.438-.22-.755-.22-.33 0-.598.067-.805.2-.207.13-.31.333-.31.61a.51.51 0 0 0 .22.435c.147.103.363.19.65.26l1.035.26c.24.063.437.147.59.25.157.103.28.218.37.345.093.127.158.26.195.4.04.137.06.268.06.395 0 .317-.08.59-.24.82a1.53 1.53 0 0 1-.68.53c-.293.123-.65.185-1.07.185Zm3.942-2.47c0 .327.053.623.16.89.11.263.275.473.495.63.223.157.502.235.835.235.33 0 .613-.077.85-.23a1.03 1.03 0 0 0 .46-.665h.875a1.75 1.75 0 0 1-.42.885c-.217.24-.478.422-.785.545-.307.12-.627.18-.96.18-.483 0-.908-.105-1.275-.315a2.191 2.191 0 0 1-.86-.905c-.207-.393-.31-.865-.31-1.415 0-.543.093-1.02.28-1.43.187-.41.457-.73.81-.96.357-.23.785-.345 1.285-.345.487 0 .898.105 1.235.315.337.21.592.507.765.89.177.38.265.832.265 1.355v.34h-3.705Zm.005-.625h2.81c0-.297-.05-.563-.15-.8-.1-.24-.253-.428-.46-.565-.203-.14-.46-.21-.77-.21-.323 0-.592.078-.805.235a1.44 1.44 0 0 0-.475.595c-.103.24-.153.488-.15.745Zm6.835 3.095c-.67 0-1.202-.23-1.595-.69-.393-.46-.59-1.132-.59-2.015 0-.537.078-1.005.235-1.405.16-.4.397-.71.71-.93.313-.22.703-.33 1.17-.33.247 0 .465.032.655.095.193.063.36.143.5.24a1.734 1.734 0 0 1 .54.585v-3.08h.93V209h-.705l-.1-1.06c-.033.1-.087.217-.16.35a1.68 1.68 0 0 1-.31.385 1.576 1.576 0 0 1-.515.305c-.207.08-.462.12-.765.12Zm.165-.71c.523 0 .897-.158 1.12-.475.227-.32.34-.842.34-1.565a3.182 3.182 0 0 0-.155-1.03 1.254 1.254 0 0 0-.46-.645c-.207-.15-.482-.225-.825-.225-.427 0-.773.152-1.04.455-.267.303-.4.785-.4 1.445 0 .647.12 1.148.36 1.505.243.357.597.535 1.06.535Zm3.702.61v-1.18h1.1V209h-1.1Zm4.172-6.38v-.85h5.47v.85h-2.205V209h-.93v-6.38h-2.335Zm6.473 6.38v-7.43h.9v3.02c.087-.143.203-.277.35-.4.147-.127.325-.228.535-.305.21-.08.453-.12.73-.12.337 0 .642.063.915.19.273.123.49.3.65.53.16.23.24.503.24.82V209h-.925v-3.51c0-.31-.107-.548-.32-.715-.21-.17-.485-.255-.825-.255-.23 0-.447.038-.65.115a1.123 1.123 0 0 0-.495.34.878.878 0 0 0-.185.575V209h-.92Zm6.422-2.37c0 .327.053.623.16.89.11.263.275.473.495.63.223.157.501.235.835.235.33 0 .613-.077.85-.23a1.03 1.03 0 0 0 .46-.665h.875c-.064.35-.204.645-.42.885a2.1 2.1 0 0 1-.785.545c-.307.12-.627.18-.96.18-.484 0-.909-.105-1.275-.315a2.185 2.185 0 0 1-.86-.905c-.207-.393-.31-.865-.31-1.415 0-.543.093-1.02.28-1.43.186-.41.456-.73.81-.96.356-.23.785-.345 1.285-.345.486 0 .898.105 1.235.315.336.21.591.507.765.89.176.38.265.832.265 1.355v.34h-3.705Zm.005-.625h2.81c0-.297-.05-.563-.15-.8a1.23 1.23 0 0 0-.46-.565c-.204-.14-.46-.21-.77-.21-.324 0-.592.078-.805.235-.21.153-.369.352-.475.595-.104.24-.154.488-.15.745Zm-168.488 12.5h-1.165v3.215c0 .183.018.318.055.405.04.083.105.137.195.16.093.023.22.035.38.035h.565v.62c-.063.023-.16.043-.29.06a3.682 3.682 0 0 1-.475.025c-.357 0-.633-.048-.83-.145a.829.829 0 0 1-.415-.43 1.874 1.874 0 0 1-.115-.7v-3.245h-.84v-.675h.865l.225-1.505h.68v1.5h1.165v.68Zm3.247 4.595c-.477 0-.894-.102-1.25-.305a2.086 2.086 0 0 1-.83-.905c-.197-.397-.295-.882-.295-1.455 0-.54.091-1.013.275-1.42.183-.407.451-.722.805-.945.356-.227.788-.34 1.295-.34.476 0 .89.105 1.24.315.353.207.626.512.82.915.193.403.29.895.29 1.475 0 .527-.09.99-.27 1.39-.177.4-.44.713-.79.94-.347.223-.777.335-1.29.335Zm0-.73c.31 0 .571-.078.785-.235.213-.157.375-.382.485-.675.11-.293.165-.642.165-1.045 0-.37-.049-.702-.145-.995a1.464 1.464 0 0 0-.465-.705c-.21-.173-.485-.26-.825-.26-.314 0-.579.078-.795.235a1.42 1.42 0 0 0-.495.67c-.11.293-.165.645-.165 1.055 0 .363.05.693.15.99.1.297.256.532.47.705.213.173.491.26.835.26Zm6.02-3.865h-1.164v3.215c0 .183.018.318.055.405.04.083.105.137.195.16.093.023.22.035.38.035h.565v.62c-.064.023-.16.043-.29.06a3.682 3.682 0 0 1-.475.025c-.357 0-.634-.048-.83-.145a.829.829 0 0 1-.415-.43 1.874 1.874 0 0 1-.115-.7v-3.245h-.84v-.675h.865l.225-1.505h.68v1.5h1.165v.68Zm2.72 4.595c-.333 0-.628-.058-.885-.175a1.432 1.432 0 0 1-.605-.515 1.466 1.466 0 0 1-.215-.81c0-.573.2-1 .6-1.28.4-.28 1.042-.43 1.925-.45l.925-.025v-.405c0-.317-.095-.567-.285-.75-.19-.187-.485-.28-.885-.28a1.518 1.518 0 0 0-.785.21c-.223.137-.368.36-.435.67h-.815c.02-.337.115-.62.285-.85.17-.233.407-.41.71-.53a2.97 2.97 0 0 1 1.085-.18c.45 0 .823.063 1.12.19.3.127.523.313.67.56.15.247.225.55.225.91V223h-.79l-.065-.97c-.2.403-.455.683-.765.84-.307.153-.645.23-1.015.23Zm.28-.665c.173 0 .345-.032.515-.095a1.84 1.84 0 0 0 .475-.255c.143-.11.257-.232.34-.365a.815.815 0 0 0 .135-.42v-.885l-.77.015a4.087 4.087 0 0 0-.99.12c-.263.073-.462.188-.595.345-.13.157-.195.362-.195.615 0 .29.1.517.3.68.203.163.465.245.785.245Zm5.24.63c-.28 0-.507-.038-.68-.115a.959.959 0 0 1-.395-.31 1.175 1.175 0 0 1-.186-.445 3.016 3.016 0 0 1-.045-.525v-6.1h.91v6.01c0 .26.05.455.15.585.104.13.247.202.43.215l.28.005v.6a1.803 1.803 0 0 1-.24.055 1.133 1.133 0 0 1-.224.025Zm5.408.035c-.334 0-.629-.058-.885-.175a1.433 1.433 0 0 1-.605-.515 1.467 1.467 0 0 1-.215-.81c0-.573.2-1 .6-1.28.4-.28 1.041-.43 1.925-.45l.925-.025v-.405c0-.317-.095-.567-.285-.75-.19-.187-.485-.28-.885-.28a1.518 1.518 0 0 0-.785.21c-.224.137-.369.36-.435.67h-.815c.02-.337.115-.62.285-.85.17-.233.406-.41.71-.53.306-.12.668-.18 1.085-.18.45 0 .823.063 1.12.19.3.127.523.313.67.56.15.247.225.55.225.91V223h-.79l-.065-.97c-.2.403-.455.683-.765.84-.307.153-.645.23-1.015.23Zm.28-.665c.173 0 .345-.032.515-.095a1.84 1.84 0 0 0 .475-.255c.143-.11.256-.232.34-.365a.813.813 0 0 0 .135-.42v-.885l-.77.015a4.088 4.088 0 0 0-.99.12c-.264.073-.462.188-.595.345-.13.157-.195.362-.195.615 0 .29.1.517.3.68.203.163.465.245.785.245Zm3.934.565v-5.17h.89v.75a2.04 2.04 0 0 1 .59-.595c.25-.17.575-.255.975-.255.187 0 .377.032.57.095.197.063.377.158.54.285.164.127.29.282.38.465.16-.253.377-.457.65-.61.274-.157.582-.235.925-.235.18 0 .369.028.565.085a1.465 1.465 0 0 1 .96.865c.107.243.16.557.16.94V223h-.93v-3.29c0-.313-.05-.555-.15-.725a.834.834 0 0 0-.395-.365 1.27 1.27 0 0 0-.515-.105c-.16 0-.33.032-.51.095s-.333.17-.46.32c-.126.15-.19.355-.19.615V223h-.92v-3.56a.789.789 0 0 0-.165-.51 1.005 1.005 0 0 0-.405-.31c-.16-.07-.32-.105-.48-.105-.176 0-.355.035-.535.105-.176.07-.326.182-.45.335-.12.15-.18.347-.18.59V223h-.92Zm10.708.1c-.477 0-.894-.102-1.25-.305a2.085 2.085 0 0 1-.83-.905c-.197-.397-.295-.882-.295-1.455 0-.54.091-1.013.275-1.42a2.11 2.11 0 0 1 .805-.945c.356-.227.788-.34 1.295-.34.476 0 .89.105 1.24.315.353.207.626.512.82.915.193.403.29.895.29 1.475 0 .527-.09.99-.27 1.39-.177.4-.44.713-.79.94-.347.223-.777.335-1.29.335Zm0-.73c.31 0 .571-.078.785-.235.213-.157.375-.382.485-.675.11-.293.165-.642.165-1.045 0-.37-.049-.702-.145-.995a1.465 1.465 0 0 0-.465-.705c-.21-.173-.485-.26-.825-.26-.314 0-.579.078-.795.235a1.419 1.419 0 0 0-.495.67c-.11.293-.165.645-.165 1.055 0 .363.05.693.15.99.1.297.256.532.47.705.213.173.491.26.835.26Zm5.372.73a2.72 2.72 0 0 1-.765-.115 1.97 1.97 0 0 1-.63-.335 1.585 1.585 0 0 1-.435-.545 1.782 1.782 0 0 1-.155-.765v-3.51h.925v3.415c0 .337.103.61.31.82.21.21.525.315.945.315.38 0 .685-.098.915-.295.233-.2.35-.497.35-.89v-3.365h.92V223h-.735l-.095-.99c-.063.26-.172.47-.325.63-.15.16-.332.278-.545.355-.21.073-.437.108-.68.105Zm3.89-.1v-5.17h.896v.75c.083-.143.198-.278.345-.405.15-.127.33-.228.54-.305a2.16 2.16 0 0 1 .735-.115c.327 0 .627.065.9.195.277.13.497.333.66.61.167.273.25.627.25 1.06V223h-.925v-3.29c0-.403-.107-.702-.32-.895-.21-.197-.483-.295-.82-.295-.233 0-.452.038-.655.115a1.12 1.12 0 0 0-.495.34.853.853 0 0 0-.19.57V223h-.92Zm8.155-4.495h-1.165v3.215c0 .183.018.318.055.405.04.083.105.137.195.16.093.023.22.035.38.035h.565v.62c-.063.023-.16.043-.29.06a3.682 3.682 0 0 1-.475.025c-.357 0-.633-.048-.83-.145a.829.829 0 0 1-.415-.43 1.874 1.874 0 0 1-.115-.7v-3.245h-.84v-.675h.865l.225-1.505h.68v1.5h1.165v.68Zm5.371 4.595c-.67 0-1.202-.23-1.595-.69-.393-.46-.59-1.132-.59-2.015 0-.537.078-1.005.235-1.405.16-.4.397-.71.71-.93.313-.22.703-.33 1.17-.33.247 0 .465.032.655.095.193.063.36.143.5.24a1.734 1.734 0 0 1 .54.585v-3.08h.93V223h-.705l-.1-1.06c-.033.1-.087.217-.16.35a1.68 1.68 0 0 1-.31.385 1.576 1.576 0 0 1-.515.305c-.207.08-.462.12-.765.12Zm.165-.71c.523 0 .897-.158 1.12-.475.227-.32.34-.842.34-1.565a3.182 3.182 0 0 0-.155-1.03 1.254 1.254 0 0 0-.46-.645c-.207-.15-.482-.225-.825-.225-.427 0-.773.152-1.04.455-.267.303-.4.785-.4 1.445 0 .647.12 1.148.36 1.505.243.357.597.535 1.06.535Zm4.577-1.76c0 .327.054.623.16.89.11.263.275.473.495.63.224.157.502.235.835.235.33 0 .614-.077.85-.23.24-.153.394-.375.46-.665h.875a1.75 1.75 0 0 1-.42.885c-.216.24-.478.422-.785.545-.306.12-.626.18-.96.18-.483 0-.908-.105-1.275-.315a2.198 2.198 0 0 1-.86-.905c-.206-.393-.31-.865-.31-1.415 0-.543.094-1.02.28-1.43.187-.41.457-.73.81-.96.357-.23.785-.345 1.285-.345.487 0 .899.105 1.235.315.337.21.592.507.765.89.177.38.265.832.265 1.355v.34h-3.705Zm.005-.625h2.81c0-.297-.05-.563-.15-.8-.1-.24-.253-.428-.46-.565-.203-.14-.46-.21-.77-.21-.323 0-.591.078-.805.235a1.44 1.44 0 0 0-.475.595c-.103.24-.153.488-.15.745Zm6.835 3.095c-.67 0-1.202-.23-1.595-.69-.393-.46-.59-1.132-.59-2.015 0-.537.078-1.005.235-1.405.16-.4.397-.71.71-.93.313-.22.703-.33 1.17-.33.247 0 .465.032.655.095.193.063.36.143.5.24a1.734 1.734 0 0 1 .54.585v-3.08h.93V223h-.705l-.1-1.06c-.033.1-.087.217-.16.35a1.68 1.68 0 0 1-.31.385 1.576 1.576 0 0 1-.515.305c-.207.08-.462.12-.765.12Zm.165-.71c.523 0 .897-.158 1.12-.475.227-.32.34-.842.34-1.565a3.182 3.182 0 0 0-.155-1.03 1.254 1.254 0 0 0-.46-.645c-.207-.15-.482-.225-.825-.225-.427 0-.773.152-1.04.455-.267.303-.4.785-.4 1.445 0 .647.12 1.148.36 1.505.243.357.597.535 1.06.535Zm5.817.71a2.72 2.72 0 0 1-.765-.115 1.984 1.984 0 0 1-.63-.335 1.592 1.592 0 0 1-.435-.545 1.786 1.786 0 0 1-.155-.765v-3.51h.925v3.415c0 .337.104.61.31.82.21.21.525.315.945.315.38 0 .685-.098.915-.295.234-.2.35-.497.35-.89v-3.365h.92V223h-.735l-.095-.99c-.063.26-.171.47-.325.63a1.37 1.37 0 0 1-.545.355 1.98 1.98 0 0 1-.68.105Zm5.883-5.37c.37 0 .703.072 1 .215.297.14.538.34.725.6.19.26.308.567.355.92h-.82c-.03-.18-.1-.345-.21-.495a1.153 1.153 0 0 0-.425-.36 1.349 1.349 0 0 0-.62-.135c-.443 0-.803.16-1.08.48-.277.32-.415.81-.415 1.47 0 .597.127 1.075.38 1.435.257.357.633.535 1.13.535.237 0 .442-.045.615-.135a1.194 1.194 0 0 0 .63-.855h.805a1.848 1.848 0 0 1-1.08 1.49 2.31 2.31 0 0 1-.99.205c-.463 0-.875-.102-1.235-.305a2.107 2.107 0 0 1-.84-.9c-.203-.397-.305-.883-.305-1.46 0-.54.092-1.012.275-1.415.187-.407.457-.723.81-.95.357-.227.788-.34 1.295-.34Zm5.791.775h-1.165v3.215c0 .183.019.318.055.405.04.083.105.137.195.16.094.023.22.035.38.035h.565v.62c-.063.023-.16.043-.29.06a3.675 3.675 0 0 1-.475.025c-.356 0-.633-.048-.83-.145a.832.832 0 0 1-.415-.43 1.888 1.888 0 0 1-.115-.7v-3.245h-.84v-.675h.865l.225-1.505h.68v1.5h1.165v.68Zm1.852 2.125c0 .327.053.623.16.89.11.263.275.473.495.63.223.157.502.235.835.235.33 0 .613-.077.85-.23a1.03 1.03 0 0 0 .46-.665h.875a1.75 1.75 0 0 1-.42.885c-.217.24-.478.422-.785.545-.307.12-.627.18-.96.18-.483 0-.908-.105-1.275-.315a2.191 2.191 0 0 1-.86-.905c-.207-.393-.31-.865-.31-1.415 0-.543.093-1.02.28-1.43.187-.41.457-.73.81-.96.357-.23.785-.345 1.285-.345.487 0 .898.105 1.235.315.337.21.592.507.765.89.177.38.265.832.265 1.355v.34h-3.705Zm.005-.625h2.81c0-.297-.05-.563-.15-.8-.1-.24-.253-.428-.46-.565-.203-.14-.46-.21-.77-.21-.323 0-.592.078-.805.235a1.44 1.44 0 0 0-.475.595c-.103.24-.153.488-.15.745Zm6.835 3.095c-.67 0-1.202-.23-1.595-.69-.394-.46-.59-1.132-.59-2.015 0-.537.078-1.005.235-1.405.16-.4.396-.71.71-.93.313-.22.703-.33 1.17-.33.246 0 .465.032.655.095.193.063.36.143.5.24a1.734 1.734 0 0 1 .54.585v-3.08h.93V223h-.705l-.1-1.06c-.034.1-.087.217-.16.35-.074.13-.177.258-.31.385a1.587 1.587 0 0 1-.515.305c-.207.08-.462.12-.765.12Zm.165-.71c.523 0 .896-.158 1.12-.475.226-.32.34-.842.34-1.565-.004-.403-.055-.747-.155-1.03a1.254 1.254 0 0 0-.46-.645c-.207-.15-.482-.225-.825-.225-.427 0-.774.152-1.04.455-.267.303-.4.785-.4 1.445 0 .647.12 1.148.36 1.505.243.357.596.535 1.06.535Zm9.142-4.56v.675h-1.255V223h-.93v-4.495h-1.09v-.675h1.09v-.8c0-.41.105-.722.315-.935.21-.217.523-.325.94-.325h.975l.005.655h-.775c-.21 0-.354.057-.43.17-.077.113-.115.285-.115.515v.72h1.27Zm1.142 5.17v-5.17h.88v.995c.087-.247.209-.45.365-.61.157-.163.335-.285.535-.365a1.711 1.711 0 0 1 .855-.105c.074.01.13.027.17.05v.895a.596.596 0 0 0-.195-.045 1.53 1.53 0 0 0-.195-.015c-.206-.013-.4 0-.58.04-.18.037-.338.102-.475.195a1.005 1.005 0 0 0-.325.37c-.076.15-.115.333-.115.55V223h-.92Zm5.815.1c-.477 0-.893-.102-1.25-.305a2.086 2.086 0 0 1-.83-.905c-.197-.397-.295-.882-.295-1.455 0-.54.092-1.013.275-1.42.183-.407.452-.722.805-.945.357-.227.788-.34 1.295-.34.477 0 .89.105 1.24.315.353.207.627.512.82.915.193.403.29.895.29 1.475 0 .527-.09.99-.27 1.39-.177.4-.44.713-.79.94-.347.223-.777.335-1.29.335Zm0-.73c.31 0 .572-.078.785-.235a1.44 1.44 0 0 0 .485-.675c.11-.293.165-.642.165-1.045 0-.37-.048-.702-.145-.995a1.47 1.47 0 0 0-.465-.705c-.21-.173-.485-.26-.825-.26a1.32 1.32 0 0 0-.795.235 1.415 1.415 0 0 0-.495.67c-.11.293-.165.645-.165 1.055 0 .363.05.693.15.99.1.297.257.532.47.705.213.173.492.26.835.26Zm3.56.63v-5.17h.89v.75c.144-.227.34-.425.59-.595.25-.17.575-.255.975-.255.187 0 .377.032.57.095.197.063.377.158.54.285.164.127.29.282.38.465a1.79 1.79 0 0 1 .65-.61c.274-.157.582-.235.925-.235.18 0 .369.028.565.085a1.46 1.46 0 0 1 .96.865c.107.243.16.557.16.94V223h-.93v-3.29c0-.313-.05-.555-.15-.725a.831.831 0 0 0-.395-.365 1.268 1.268 0 0 0-.515-.105c-.16 0-.33.032-.51.095s-.333.17-.46.32c-.126.15-.19.355-.19.615V223h-.92v-3.56a.789.789 0 0 0-.165-.51.997.997 0 0 0-.405-.31c-.16-.07-.32-.105-.48-.105a1.47 1.47 0 0 0-.535.105c-.176.07-.326.182-.45.335-.12.15-.18.347-.18.59V223h-.92Zm11.399 1.65c-.303 0-.512-.022-.625-.065l-.17-.065v-.6l.525.01c.193.007.353-.007.48-.04a.881.881 0 0 0 .305-.135.623.623 0 0 0 .175-.19c.043-.07.078-.137.105-.2l.18-.49-2.02-5.045h.935l1.525 3.99 1.515-3.99h.905l-2.18 5.56c-.133.327-.283.582-.45.765a1.349 1.349 0 0 1-.55.385c-.2.073-.418.11-.655.11Zm6.691-1.55c-.476 0-.893-.102-1.25-.305a2.092 2.092 0 0 1-.83-.905c-.196-.397-.295-.882-.295-1.455 0-.54.092-1.013.275-1.42.184-.407.452-.722.805-.945.357-.227.789-.34 1.295-.34.477 0 .89.105 1.24.315.354.207.627.512.82.915.194.403.29.895.29 1.475 0 .527-.09.99-.27 1.39a2.1 2.1 0 0 1-.79.94c-.346.223-.776.335-1.29.335Zm0-.73c.31 0 .572-.078.785-.235.214-.157.375-.382.485-.675.11-.293.165-.642.165-1.045 0-.37-.048-.702-.145-.995a1.455 1.455 0 0 0-.465-.705c-.21-.173-.485-.26-.825-.26a1.32 1.32 0 0 0-.795.235 1.428 1.428 0 0 0-.495.67c-.11.293-.165.645-.165 1.055 0 .363.05.693.15.99.1.297.257.532.47.705.214.173.492.26.835.26Zm5.373.73a2.72 2.72 0 0 1-.765-.115 1.963 1.963 0 0 1-.63-.335 1.569 1.569 0 0 1-.435-.545 1.771 1.771 0 0 1-.155-.765v-3.51h.925v3.415c0 .337.103.61.31.82.21.21.525.315.945.315.38 0 .685-.098.915-.295.233-.2.35-.497.35-.89v-3.365h.92V223h-.735l-.095-.99a1.36 1.36 0 0 1-.325.63c-.15.16-.332.278-.545.355-.21.073-.437.108-.68.105Zm3.891-.1v-5.17h.88v.995c.086-.247.208-.45.365-.61.156-.163.335-.285.535-.365a1.704 1.704 0 0 1 .855-.105c.073.01.13.027.17.05v.895a.596.596 0 0 0-.195-.045 1.556 1.556 0 0 0-.195-.015c-.207-.013-.4 0-.58.04-.18.037-.339.102-.475.195a.996.996 0 0 0-.325.37c-.077.15-.115.333-.115.55V223h-.92ZM40.195 237.1c-.333 0-.628-.058-.885-.175a1.433 1.433 0 0 1-.605-.515 1.467 1.467 0 0 1-.215-.81c0-.573.2-1 .6-1.28.4-.28 1.042-.43 1.925-.45l.925-.025v-.405c0-.317-.095-.567-.285-.75-.19-.187-.485-.28-.885-.28a1.518 1.518 0 0 0-.785.21c-.223.137-.368.36-.435.67h-.815c.02-.337.115-.62.285-.85.17-.233.407-.41.71-.53.307-.12.668-.18 1.085-.18.45 0 .823.063 1.12.19.3.127.523.313.67.56.15.247.225.55.225.91V237h-.79l-.065-.97c-.2.403-.455.683-.765.84-.307.153-.645.23-1.015.23Zm.28-.665c.173 0 .345-.032.515-.095a1.84 1.84 0 0 0 .475-.255c.143-.11.257-.232.34-.365a.813.813 0 0 0 .135-.42v-.885l-.77.015a4.088 4.088 0 0 0-.99.12c-.263.073-.462.188-.595.345-.13.157-.195.362-.195.615 0 .29.1.517.3.68.203.163.465.245.785.245Zm5.994-4.705c.37 0 .704.072 1 .215.297.14.539.34.725.6.19.26.309.567.355.92h-.82c-.03-.18-.1-.345-.21-.495a1.152 1.152 0 0 0-.425-.36 1.348 1.348 0 0 0-.62-.135c-.443 0-.803.16-1.08.48-.276.32-.414.81-.414 1.47 0 .597.126 1.075.38 1.435.256.357.633.535 1.13.535.236 0 .441-.045.614-.135a1.193 1.193 0 0 0 .63-.855h.805a1.85 1.85 0 0 1-1.08 1.49 2.312 2.312 0 0 1-.99.205 2.47 2.47 0 0 1-1.235-.305 2.112 2.112 0 0 1-.84-.9c-.203-.397-.304-.883-.304-1.46 0-.54.091-1.012.274-1.415.187-.407.457-.723.81-.95.357-.227.789-.34 1.295-.34Zm5.391 0c.37 0 .703.072 1 .215.297.14.538.34.725.6.19.26.309.567.355.92h-.82c-.03-.18-.1-.345-.21-.495a1.153 1.153 0 0 0-.425-.36 1.349 1.349 0 0 0-.62-.135c-.443 0-.803.16-1.08.48-.276.32-.415.81-.415 1.47 0 .597.127 1.075.38 1.435.257.357.633.535 1.13.535.237 0 .442-.045.615-.135a1.194 1.194 0 0 0 .63-.855h.805a1.852 1.852 0 0 1-1.08 1.49 2.312 2.312 0 0 1-.99.205 2.47 2.47 0 0 1-1.235-.305 2.111 2.111 0 0 1-.84-.9c-.203-.397-.305-.883-.305-1.46 0-.54.092-1.012.275-1.415.187-.407.457-.723.81-.95.357-.227.788-.34 1.295-.34Zm5.386 5.37c-.477 0-.894-.102-1.25-.305a2.085 2.085 0 0 1-.83-.905c-.197-.397-.295-.882-.295-1.455 0-.54.091-1.013.275-1.42a2.11 2.11 0 0 1 .805-.945c.356-.227.788-.34 1.295-.34.476 0 .89.105 1.24.315.353.207.626.512.82.915.193.403.29.895.29 1.475 0 .527-.09.99-.27 1.39-.177.4-.44.713-.79.94-.347.223-.777.335-1.29.335Zm0-.73c.31 0 .571-.078.785-.235.213-.157.375-.382.485-.675.11-.293.165-.642.165-1.045 0-.37-.049-.702-.145-.995a1.465 1.465 0 0 0-.465-.705c-.21-.173-.485-.26-.825-.26-.314 0-.579.078-.795.235a1.419 1.419 0 0 0-.495.67c-.11.293-.165.645-.165 1.055 0 .363.05.693.15.99.1.297.256.532.47.705.213.173.491.26.835.26Zm5.372.73a2.72 2.72 0 0 1-.765-.115 1.971 1.971 0 0 1-.63-.335 1.585 1.585 0 0 1-.435-.545 1.782 1.782 0 0 1-.155-.765v-3.51h.925v3.415c0 .337.103.61.31.82.21.21.525.315.945.315.38 0 .685-.098.915-.295.233-.2.35-.497.35-.89v-3.365h.92V237h-.735l-.095-.99a1.35 1.35 0 0 1-.325.63c-.15.16-.332.278-.545.355-.21.073-.437.108-.68.105Zm3.891-.1v-5.17h.895v.75c.084-.143.199-.278.345-.405.15-.127.33-.228.54-.305a2.16 2.16 0 0 1 .735-.115c.327 0 .627.065.9.195.277.13.497.333.66.61.167.273.25.627.25 1.06V237h-.925v-3.29c0-.403-.107-.702-.32-.895-.21-.197-.483-.295-.82-.295-.233 0-.452.038-.655.115a1.12 1.12 0 0 0-.495.34.853.853 0 0 0-.19.57V237h-.92Zm8.154-4.495h-1.165v3.215c0 .183.018.318.055.405.04.083.105.137.195.16.093.023.22.035.38.035h.565v.62c-.063.023-.16.043-.29.06a3.681 3.681 0 0 1-.475.025c-.356 0-.633-.048-.83-.145a.83.83 0 0 1-.415-.43 1.876 1.876 0 0 1-.115-.7v-3.245h-.84v-.675h.865l.225-1.505h.68v1.5h1.165v.68Zm4.633-.675V237h-.895v-5.17h.895Zm.02-2.055v.96h-.945v-.96h.945Zm3.442 7.325c-.36 0-.695-.055-1.005-.165a1.815 1.815 0 0 1-.765-.525c-.203-.24-.332-.545-.385-.915h.84c.047.203.13.373.25.51a1.2 1.2 0 0 0 .46.305c.183.067.383.1.6.1.347 0 .627-.065.84-.195.213-.13.32-.33.32-.6a.615.615 0 0 0-.17-.455c-.11-.117-.281-.202-.515-.255l-1.07-.265c-.416-.1-.75-.257-1-.47-.25-.213-.375-.512-.375-.895-.003-.303.069-.57.215-.8.147-.23.367-.412.66-.545.293-.133.659-.2 1.095-.2.56 0 1.012.127 1.355.38.347.25.527.618.54 1.105h-.815a.842.842 0 0 0-.335-.585c-.187-.147-.438-.22-.755-.22-.33 0-.598.067-.805.2-.207.13-.31.333-.31.61a.51.51 0 0 0 .22.435c.147.103.364.19.65.26l1.035.26c.24.063.437.147.59.25.157.103.28.218.37.345.094.127.159.26.195.4.04.137.06.268.06.395 0 .317-.08.59-.24.82a1.53 1.53 0 0 1-.68.53c-.293.123-.65.185-1.07.185Zm11.232-2.855c0 .583-.096 1.09-.285 1.52a2.06 2.06 0 0 1-.925.99c-.424.23-.986.345-1.686.345-.703 0-1.266-.117-1.69-.35a2.09 2.09 0 0 1-.92-1.005c-.186-.433-.28-.95-.28-1.55v-4.425h1.486v4.535c0 .54.13.935.39 1.185.26.247.598.37 1.014.37.277 0 .522-.053.736-.16.213-.11.38-.278.5-.505.123-.23.184-.527.184-.89v-4.535h1.476v4.475Zm4.166 2.855c-.357 0-.707-.045-1.05-.135a3.3 3.3 0 0 1-.94-.405 2.431 2.431 0 0 1-.705-.675 2.023 2.023 0 0 1-.33-.95h1.495c.05.22.145.405.285.555.14.15.317.265.53.345.213.08.45.12.71.12a2.5 2.5 0 0 0 .73-.1 1.25 1.25 0 0 0 .53-.3.703.703 0 0 0 .2-.51.63.63 0 0 0-.165-.45 1.155 1.155 0 0 0-.435-.285 3.634 3.634 0 0 0-.625-.18l-1.25-.255c-.547-.103-.98-.32-1.3-.65-.32-.333-.485-.777-.495-1.33-.003-.453.117-.845.36-1.175a2.38 2.38 0 0 1 1-.77c.423-.18.897-.27 1.42-.27.623 0 1.147.098 1.57.295.427.193.75.457.97.79.223.33.338.698.345 1.105h-1.465c-.027-.253-.103-.455-.23-.605a1.07 1.07 0 0 0-.49-.325 2.09 2.09 0 0 0-.675-.1c-.194 0-.37.022-.53.065-.157.043-.29.105-.4.185a.832.832 0 0 0-.255.275.723.723 0 0 0-.09.36c0 .21.07.38.21.51.14.13.401.237.785.32l1.24.255c.443.087.795.215 1.055.385a1.847 1.847 0 0 1 .85 1.23c.043.22.065.423.065.61 0 .39-.123.742-.37 1.055-.243.31-.583.557-1.02.74-.437.18-.947.27-1.53.27Zm9.063 0c-.867 0-1.57-.173-2.11-.52-.54-.35-.85-.888-.93-1.615l1.52-.03c.08.33.251.582.515.755.266.17.6.255 1 .255.24 0 .451-.038.635-.115a1.12 1.12 0 0 0 .44-.32.741.741 0 0 0 .16-.465c0-.267-.085-.465-.255-.595-.17-.133-.432-.24-.785-.32l-1.185-.255c-.55-.11-.992-.328-1.325-.655-.33-.33-.499-.772-.505-1.325a1.878 1.878 0 0 1 .365-1.175c.25-.333.588-.59 1.015-.77.43-.18.911-.27 1.445-.27.546 0 1.018.098 1.415.295.4.193.706.455.92.785.216.327.321.688.315 1.085l-1.475.025c-.047-.32-.154-.572-.32-.755-.167-.183-.444-.275-.83-.275-.2 0-.379.022-.535.065a1.28 1.28 0 0 0-.405.185.808.808 0 0 0-.26.275.753.753 0 0 0-.085.36c0 .21.07.377.21.5.143.12.411.232.805.335l1.165.285c.656.157 1.13.425 1.42.805.293.38.44.842.44 1.385 0 .417-.115.78-.345 1.09-.227.31-.549.55-.965.72-.417.17-.907.255-1.47.255Zm-.625-8.365h1.265v1.3h-1.265v-1.3Zm-.025 7.92h1.26v1.3h-1.26v-1.3Zm5.641.345v-5.415h-1.29v-.825c.414 0 .747-.038 1-.115.257-.08.449-.193.575-.34a.974.974 0 0 0 .225-.535h.97V237h-1.48Zm5.788-7.33c.86 0 1.538.322 2.035.965.496.64.745 1.562.745 2.765 0 1.197-.245 2.115-.735 2.755-.49.637-1.172.955-2.045.955-.877 0-1.562-.318-2.055-.955-.49-.637-.735-1.553-.735-2.75 0-.8.113-1.478.34-2.035.226-.557.548-.978.965-1.265.416-.29.911-.435 1.485-.435Zm0 6.245c.43 0 .745-.192.945-.575.2-.387.3-1.032.3-1.935 0-.923-.102-1.585-.305-1.985-.204-.4-.519-.6-.945-.6-.427 0-.745.202-.955.605-.207.403-.31 1.063-.31 1.98 0 .9.103 1.543.31 1.93.206.387.526.58.96.58Zm6.901-6.145h1.435v4.405h1.115v1.225h-1.115v1.6h-1.405l.005-1.6h-3.33v-1.2l3.295-4.43Zm-1.945 4.405h1.98v-2.65l-1.98 2.65Zm5.277 2.825v-1.59h1.6V237h-1.6Zm5.296.11c-.45 0-.87-.087-1.26-.26a2.46 2.46 0 0 1-.955-.73 1.992 1.992 0 0 1-.415-1.11h1.39c.06.28.193.508.4.685.206.173.466.26.78.26.346 0 .65-.082.91-.245.263-.163.46-.423.59-.78.133-.357.18-.823.14-1.4a1.487 1.487 0 0 1-.39.465c-.164.13-.355.232-.575.305-.22.07-.465.105-.735.105-.49 0-.925-.092-1.305-.275a2.174 2.174 0 0 1-.89-.79c-.214-.343-.32-.75-.32-1.22 0-.473.113-.895.34-1.265.226-.37.543-.66.95-.87.406-.21.883-.315 1.43-.315.613 0 1.141.147 1.585.44.446.29.788.703 1.025 1.24.24.533.36 1.162.36 1.885 0 .863-.124 1.583-.37 2.16-.244.573-.594 1.003-1.05 1.29-.457.283-1.002.425-1.635.425Zm.13-3.865c.203 0 .4-.045.59-.135.193-.093.351-.21.475-.35a.656.656 0 0 0 .185-.435c.003-.323-.049-.6-.155-.83a1.198 1.198 0 0 0-.44-.535 1.164 1.164 0 0 0-.655-.185 1.132 1.132 0 0 0-1.04.61 1.392 1.392 0 0 0-.155.67c0 .377.11.67.33.88.22.207.508.31.865.31Zm6.567-3.575c.86 0 1.538.322 2.035.965.497.64.745 1.562.745 2.765 0 1.197-.245 2.115-.735 2.755-.49.637-1.172.955-2.045.955-.877 0-1.562-.318-2.055-.955-.49-.637-.735-1.553-.735-2.75 0-.8.113-1.478.34-2.035.227-.557.548-.978.965-1.265.417-.29.912-.435 1.485-.435Zm0 6.245c.43 0 .745-.192.945-.575.2-.387.3-1.032.3-1.935 0-.923-.102-1.585-.305-1.985-.203-.4-.518-.6-.945-.6-.427 0-.745.202-.955.605-.207.403-.31 1.063-.31 1.98 0 .9.103 1.543.31 1.93.207.387.527.58.96.58Zm3.765 1.085v-1.18h1.1V237h-1.1Z" fill="#36536B"/></g><defs><linearGradient id="paint0_linear_41_140" x1="10.015" y1="0" x2="10.015" y2="12.324" gradientUnits="userSpaceOnUse"><stop stop-color="#454545"/><stop offset=".226" stop-color="#999"/><stop offset="1" stop-color="#fff"/></linearGradient><linearGradient id="paint1_linear_41_140" x1="260.103" y1="85.747" x2="250.642" y2="85.747" gradientUnits="userSpaceOnUse"><stop stop-color="#fff" stop-opacity=".01"/><stop offset=".222" stop-color="#BABABA"/><stop offset=".547" stop-color="#fff" stop-opacity=".01"/><stop offset="1" stop-color="#fff" stop-opacity=".01"/></linearGradient><linearGradient id="paint2_linear_41_140" x1="2.568" y1="85.487" x2="12.044" y2="85.487" gradientUnits="userSpaceOnUse"><stop stop-color="#fff" stop-opacity=".01"/><stop offset=".222" stop-color="#BABABA"/><stop offset=".547" stop-color="#fff" stop-opacity=".01"/><stop offset="1" stop-color="#fff" stop-opacity=".01"/></linearGradient><linearGradient id="paint3_linear_41_140" x1="15.907" y1="12.445" x2="15.907" y2="473.824" gradientUnits="userSpaceOnUse"><stop stop-color="#9CB6CD"/><stop offset=".421" stop-color="#9AB3CA"/><stop offset=".717" stop-color="#557496"/><stop offset="1" stop-color="#475178"/></linearGradient><clipPath id="clip0_41_140"><path fill="#fff" transform="translate(15.074 12.445)" d="M0 0h233v465H0z"/></clipPath><clipPath id="clip1_41_140"><path fill="#fff" transform="translate(22 167)" d="M0 0h218v87H0z"/></clipPath><clipPath id="clip2_41_140"><path fill="#fff" transform="translate(38 183)" d="M0 0h187v11H0z"/></clipPath><filter id="filter0_d_41_140" x="17" y="162" width="248" height="117" filterUnits="userSpaceOnUse" color-interpolation-filters="sRGB"><feFlood flood-opacity="0" result="BackgroundImageFix"/><feColorMatrix in="SourceAlpha" values="0 0 0 0 0 0 0 0 0 0 0 0 0 0 0 0 0 0 127 0" result="hardAlpha"/><feMorphology radius="10" in="SourceAlpha" result="effect1_dropShadow_41_140"/><feOffset dx="10" dy="10"/><feGaussianBlur stdDeviation="12.5"/><feColorMatrix values="0 0 0 0 0.212302 0 0 0 0 0.32521 0 0 0 0 0.419299 0 0 0 0.25 0"/><feBlend in2="BackgroundImageFix" result="effect1_dropShadow_41_140"/><feBlend in="SourceGraphic" in2="effect1_dropShadow_41_140" result="shape"/></filter></defs></svg>